<mxfile host="app.diagrams.net" modified="2022-03-17T09:34:42.485Z" agent="5.0 (Windows NT 10.0; Win64; x64) AppleWebKit/537.36 (KHTML, like Gecko) Chrome/99.0.4844.74 Safari/537.36" etag="qAkOmUGwBqP5b_Nn_6kc" version="17.1.3" type="github">
  <diagram id="aczm6JjFsx3f1auIpSc7" name="Page-1">
    <mxGraphModel dx="1422" dy="794" grid="1" gridSize="10" guides="1" tooltips="1" connect="1" arrows="1" fold="1" page="1" pageScale="1" pageWidth="827" pageHeight="1169" math="0" shadow="0">
      <root>
        <mxCell id="0" />
        <mxCell id="1" parent="0" />
        <mxCell id="OWlzXYhG9qaFkygqkcbO-2" value="测试&lt;br&gt;效果" style="shape=process;whiteSpace=wrap;html=1;backgroundOutline=1;" vertex="1" parent="1">
          <mxGeometry x="490" y="240" width="100" height="40" as="geometry" />
        </mxCell>
        <mxCell id="OWlzXYhG9qaFkygqkcbO-5" value="" style="edgeStyle=orthogonalEdgeStyle;rounded=0;orthogonalLoop=1;jettySize=auto;html=1;" edge="1" parent="1" source="OWlzXYhG9qaFkygqkcbO-3" target="OWlzXYhG9qaFkygqkcbO-4">
          <mxGeometry relative="1" as="geometry" />
        </mxCell>
        <mxCell id="OWlzXYhG9qaFkygqkcbO-3" value="测试&lt;br&gt;效果" style="shape=process;whiteSpace=wrap;html=1;backgroundOutline=1;" vertex="1" parent="1">
          <mxGeometry x="490" y="330" width="100" height="40" as="geometry" />
        </mxCell>
        <mxCell id="OWlzXYhG9qaFkygqkcbO-4" value="代码&lt;br&gt;逻辑" style="shape=step;perimeter=stepPerimeter;whiteSpace=wrap;html=1;fixedSize=1;" vertex="1" parent="1">
          <mxGeometry x="350" y="320" width="90" height="60" as="geometry" />
        </mxCell>
        <mxCell id="OWlzXYhG9qaFkygqkcbO-11" value="" style="edgeStyle=orthogonalEdgeStyle;rounded=0;orthogonalLoop=1;jettySize=auto;html=1;" edge="1" source="OWlzXYhG9qaFkygqkcbO-12" target="OWlzXYhG9qaFkygqkcbO-13" parent="1">
          <mxGeometry relative="1" as="geometry" />
        </mxCell>
        <mxCell id="OWlzXYhG9qaFkygqkcbO-12" value="测试&lt;br&gt;效果" style="shape=process;whiteSpace=wrap;html=1;backgroundOutline=1;" vertex="1" parent="1">
          <mxGeometry x="490" y="430" width="100" height="40" as="geometry" />
        </mxCell>
        <mxCell id="OWlzXYhG9qaFkygqkcbO-15" value="" style="edgeStyle=orthogonalEdgeStyle;rounded=0;orthogonalLoop=1;jettySize=auto;html=1;" edge="1" parent="1" source="OWlzXYhG9qaFkygqkcbO-13" target="OWlzXYhG9qaFkygqkcbO-14">
          <mxGeometry relative="1" as="geometry" />
        </mxCell>
        <mxCell id="OWlzXYhG9qaFkygqkcbO-13" value="代码&lt;br&gt;逻辑" style="shape=step;perimeter=stepPerimeter;whiteSpace=wrap;html=1;fixedSize=1;" vertex="1" parent="1">
          <mxGeometry x="350" y="420" width="90" height="60" as="geometry" />
        </mxCell>
        <mxCell id="OWlzXYhG9qaFkygqkcbO-14" value="需求&lt;br&gt;目标" style="ellipse;shape=cloud;whiteSpace=wrap;html=1;" vertex="1" parent="1">
          <mxGeometry x="200" y="415" width="105" height="70" as="geometry" />
        </mxCell>
        <mxCell id="OWlzXYhG9qaFkygqkcbO-17" value="" style="edgeStyle=orthogonalEdgeStyle;rounded=0;orthogonalLoop=1;jettySize=auto;html=1;" edge="1" source="OWlzXYhG9qaFkygqkcbO-18" target="OWlzXYhG9qaFkygqkcbO-20" parent="1">
          <mxGeometry relative="1" as="geometry" />
        </mxCell>
        <mxCell id="OWlzXYhG9qaFkygqkcbO-24" value="" style="edgeStyle=orthogonalEdgeStyle;rounded=0;orthogonalLoop=1;jettySize=auto;html=1;" edge="1" parent="1" source="OWlzXYhG9qaFkygqkcbO-18" target="OWlzXYhG9qaFkygqkcbO-23">
          <mxGeometry relative="1" as="geometry" />
        </mxCell>
        <mxCell id="OWlzXYhG9qaFkygqkcbO-18" value="测试&lt;br&gt;效果" style="shape=process;whiteSpace=wrap;html=1;backgroundOutline=1;" vertex="1" parent="1">
          <mxGeometry x="490" y="525" width="100" height="40" as="geometry" />
        </mxCell>
        <mxCell id="OWlzXYhG9qaFkygqkcbO-19" value="" style="edgeStyle=orthogonalEdgeStyle;rounded=0;orthogonalLoop=1;jettySize=auto;html=1;" edge="1" source="OWlzXYhG9qaFkygqkcbO-20" target="OWlzXYhG9qaFkygqkcbO-21" parent="1">
          <mxGeometry relative="1" as="geometry" />
        </mxCell>
        <mxCell id="OWlzXYhG9qaFkygqkcbO-20" value="代码&lt;br&gt;逻辑" style="shape=step;perimeter=stepPerimeter;whiteSpace=wrap;html=1;fixedSize=1;" vertex="1" parent="1">
          <mxGeometry x="350" y="515" width="90" height="60" as="geometry" />
        </mxCell>
        <mxCell id="OWlzXYhG9qaFkygqkcbO-21" value="需求&lt;br&gt;目标" style="ellipse;shape=cloud;whiteSpace=wrap;html=1;" vertex="1" parent="1">
          <mxGeometry x="200" y="510" width="105" height="70" as="geometry" />
        </mxCell>
        <mxCell id="OWlzXYhG9qaFkygqkcbO-23" value="日志&lt;br&gt;数据" style="shape=hexagon;perimeter=hexagonPerimeter2;whiteSpace=wrap;html=1;fixedSize=1;" vertex="1" parent="1">
          <mxGeometry x="640" y="520.25" width="90" height="49.5" as="geometry" />
        </mxCell>
        <mxCell id="OWlzXYhG9qaFkygqkcbO-25" value="" style="edgeStyle=orthogonalEdgeStyle;rounded=0;orthogonalLoop=1;jettySize=auto;html=1;" edge="1" source="OWlzXYhG9qaFkygqkcbO-27" target="OWlzXYhG9qaFkygqkcbO-29" parent="1">
          <mxGeometry relative="1" as="geometry" />
        </mxCell>
        <mxCell id="OWlzXYhG9qaFkygqkcbO-26" value="" style="edgeStyle=orthogonalEdgeStyle;rounded=0;orthogonalLoop=1;jettySize=auto;html=1;" edge="1" source="OWlzXYhG9qaFkygqkcbO-27" target="OWlzXYhG9qaFkygqkcbO-31" parent="1">
          <mxGeometry relative="1" as="geometry" />
        </mxCell>
        <mxCell id="OWlzXYhG9qaFkygqkcbO-27" value="测试&lt;br&gt;效果" style="shape=process;whiteSpace=wrap;html=1;backgroundOutline=1;" vertex="1" parent="1">
          <mxGeometry x="490" y="625" width="100" height="40" as="geometry" />
        </mxCell>
        <mxCell id="OWlzXYhG9qaFkygqkcbO-28" value="" style="edgeStyle=orthogonalEdgeStyle;rounded=0;orthogonalLoop=1;jettySize=auto;html=1;" edge="1" source="OWlzXYhG9qaFkygqkcbO-29" target="OWlzXYhG9qaFkygqkcbO-30" parent="1">
          <mxGeometry relative="1" as="geometry" />
        </mxCell>
        <mxCell id="OWlzXYhG9qaFkygqkcbO-29" value="代码&lt;br&gt;逻辑" style="shape=step;perimeter=stepPerimeter;whiteSpace=wrap;html=1;fixedSize=1;" vertex="1" parent="1">
          <mxGeometry x="350" y="615" width="90" height="60" as="geometry" />
        </mxCell>
        <mxCell id="OWlzXYhG9qaFkygqkcbO-30" value="需求&lt;br&gt;目标" style="ellipse;shape=cloud;whiteSpace=wrap;html=1;" vertex="1" parent="1">
          <mxGeometry x="200" y="610" width="105" height="70" as="geometry" />
        </mxCell>
        <mxCell id="OWlzXYhG9qaFkygqkcbO-33" value="" style="edgeStyle=orthogonalEdgeStyle;rounded=0;orthogonalLoop=1;jettySize=auto;html=1;" edge="1" parent="1" source="OWlzXYhG9qaFkygqkcbO-31" target="OWlzXYhG9qaFkygqkcbO-32">
          <mxGeometry relative="1" as="geometry" />
        </mxCell>
        <mxCell id="OWlzXYhG9qaFkygqkcbO-31" value="日志&lt;br&gt;数据" style="shape=hexagon;perimeter=hexagonPerimeter2;whiteSpace=wrap;html=1;fixedSize=1;" vertex="1" parent="1">
          <mxGeometry x="640" y="620.25" width="90" height="49.5" as="geometry" />
        </mxCell>
        <mxCell id="OWlzXYhG9qaFkygqkcbO-32" value="优化" style="ellipse;whiteSpace=wrap;html=1;" vertex="1" parent="1">
          <mxGeometry x="770" y="617.5" width="85" height="55" as="geometry" />
        </mxCell>
        <mxCell id="OWlzXYhG9qaFkygqkcbO-41" value="" style="endArrow=classic;html=1;rounded=0;exitX=0.5;exitY=1;exitDx=0;exitDy=0;entryX=0.5;entryY=1;entryDx=0;entryDy=0;dashed=1;" edge="1" parent="1" source="OWlzXYhG9qaFkygqkcbO-32" target="OWlzXYhG9qaFkygqkcbO-29">
          <mxGeometry relative="1" as="geometry">
            <mxPoint x="700" y="730" as="sourcePoint" />
            <mxPoint x="500" y="770" as="targetPoint" />
            <Array as="points">
              <mxPoint x="550" y="700" />
            </Array>
          </mxGeometry>
        </mxCell>
        <mxCell id="OWlzXYhG9qaFkygqkcbO-42" value="" style="shape=message;html=1;outlineConnect=0;" vertex="1" parent="OWlzXYhG9qaFkygqkcbO-41">
          <mxGeometry width="20" height="14" relative="1" as="geometry">
            <mxPoint x="-10" y="-7" as="offset" />
          </mxGeometry>
        </mxCell>
        <mxCell id="OWlzXYhG9qaFkygqkcbO-44" value="" style="endArrow=classic;html=1;rounded=0;dashed=1;entryX=0.55;entryY=0.95;entryDx=0;entryDy=0;entryPerimeter=0;" edge="1" parent="1" target="OWlzXYhG9qaFkygqkcbO-30">
          <mxGeometry relative="1" as="geometry">
            <mxPoint x="820" y="670" as="sourcePoint" />
            <mxPoint x="405" y="685" as="targetPoint" />
            <Array as="points">
              <mxPoint x="510" y="750" />
            </Array>
          </mxGeometry>
        </mxCell>
        <mxCell id="OWlzXYhG9qaFkygqkcbO-45" value="" style="shape=message;html=1;outlineConnect=0;" vertex="1" parent="OWlzXYhG9qaFkygqkcbO-44">
          <mxGeometry width="20" height="14" relative="1" as="geometry">
            <mxPoint x="-10" y="-7" as="offset" />
          </mxGeometry>
        </mxCell>
      </root>
    </mxGraphModel>
  </diagram>
</mxfile>
